<?xml version="1.0" encoding="UTF-8" standalone="no"?>
<!DOCTYPE svg PUBLIC "-//W3C//DTD SVG 1.1//EN"
 "http://www.w3.org/Graphics/SVG/1.1/DTD/svg11.dtd">
<!-- Generated by graphviz version 2.44.1 (20200629.0846)
 -->
<!-- Title: misc/sieve_of_eratosthenes.c Pages: 1 -->
<svg width="268pt" height="84pt"
 viewBox="0.00 0.00 267.50 84.00" xmlns="http://www.w3.org/2000/svg" xmlns:xlink="http://www.w3.org/1999/xlink">
<g id="graph0" class="graph" transform="scale(1 1) rotate(0) translate(4 80)">
<title>misc/sieve_of_eratosthenes.c</title>
<polygon fill="white" stroke="transparent" points="-4,4 -4,-80 263.5,-80 263.5,4 -4,4"/>
<!-- Node1 -->
<g id="node1" class="node">
<title>Node1</title>
<g id="a_node1"><a xlink:title="Get list of prime numbers using Sieve of Eratosthenes">
<polygon fill="#bfbfbf" stroke="black" points="59.5,-56.5 59.5,-75.5 206.5,-75.5 206.5,-56.5 59.5,-56.5"/>
<text text-anchor="middle" x="133" y="-63.5" font-family="Helvetica,sans-Serif" font-size="10.00">misc/sieve_of_eratosthenes.c</text>
</a>
</g>
</g>
<!-- Node2 -->
<g id="node2" class="node">
<title>Node2</title>
<g id="a_node2"><a xlink:title=" ">
<polygon fill="white" stroke="#bfbfbf" points="0,-0.5 0,-19.5 52,-19.5 52,-0.5 0,-0.5"/>
<text text-anchor="middle" x="26" y="-7.5" font-family="Helvetica,sans-Serif" font-size="10.00">assert.h</text>
</a>
</g>
</g>
<!-- Node1&#45;&gt;Node2 -->
<g id="edge1" class="edge">
<title>Node1&#45;&gt;Node2</title>
<path fill="none" stroke="midnightblue" d="M115.81,-56.32C98.65,-47.66 72.05,-34.24 52.25,-24.25"/>
<polygon fill="midnightblue" stroke="midnightblue" points="53.65,-21.04 43.15,-19.65 50.5,-27.28 53.65,-21.04"/>
</g>
<!-- Node3 -->
<g id="node3" class="node">
<title>Node3</title>
<g id="a_node3"><a xlink:title=" ">
<polygon fill="white" stroke="#bfbfbf" points="70,-0.5 70,-19.5 126,-19.5 126,-0.5 70,-0.5"/>
<text text-anchor="middle" x="98" y="-7.5" font-family="Helvetica,sans-Serif" font-size="10.00">stdbool.h</text>
</a>
</g>
</g>
<!-- Node1&#45;&gt;Node3 -->
<g id="edge2" class="edge">
<title>Node1&#45;&gt;Node3</title>
<path fill="none" stroke="midnightblue" d="M127.22,-56.08C122.33,-48.53 115.17,-37.49 109.17,-28.23"/>
<polygon fill="midnightblue" stroke="midnightblue" points="112.05,-26.24 103.67,-19.75 106.17,-30.05 112.05,-26.24"/>
</g>
<!-- Node4 -->
<g id="node4" class="node">
<title>Node4</title>
<g id="a_node4"><a xlink:title=" ">
<polygon fill="white" stroke="#bfbfbf" points="144,-0.5 144,-19.5 192,-19.5 192,-0.5 144,-0.5"/>
<text text-anchor="middle" x="168" y="-7.5" font-family="Helvetica,sans-Serif" font-size="10.00">stdlib.h</text>
</a>
</g>
</g>
<!-- Node1&#45;&gt;Node4 -->
<g id="edge3" class="edge">
<title>Node1&#45;&gt;Node4</title>
<path fill="none" stroke="midnightblue" d="M138.78,-56.08C143.67,-48.53 150.83,-37.49 156.83,-28.23"/>
<polygon fill="midnightblue" stroke="midnightblue" points="159.83,-30.05 162.33,-19.75 153.95,-26.24 159.83,-30.05"/>
</g>
<!-- Node5 -->
<g id="node5" class="node">
<title>Node5</title>
<g id="a_node5"><a xlink:title=" ">
<polygon fill="white" stroke="#bfbfbf" points="210.5,-0.5 210.5,-19.5 259.5,-19.5 259.5,-0.5 210.5,-0.5"/>
<text text-anchor="middle" x="235" y="-7.5" font-family="Helvetica,sans-Serif" font-size="10.00">string.h</text>
</a>
</g>
</g>
<!-- Node1&#45;&gt;Node5 -->
<g id="edge4" class="edge">
<title>Node1&#45;&gt;Node5</title>
<path fill="none" stroke="midnightblue" d="M149.39,-56.32C165.67,-47.7 190.87,-34.36 209.72,-24.39"/>
<polygon fill="midnightblue" stroke="midnightblue" points="211.45,-27.43 218.65,-19.65 208.18,-21.24 211.45,-27.43"/>
</g>
</g>
</svg>
